<svg xmlns="http://www.w3.org/2000/svg" height="466.666" width="700" viewBox="-22.145 -4.556 191.929 27.339"><path d="M131.779 0h14.095c1.646 0 2.279 1.271 1.288 2.587l-11.305 14.972c-1.296 1.718-3.872-.227-2.577-1.945l9.352-12.384h-10.854c-2.152 0-2.152-3.228 0-3.228" fill="#ee3425"/><path d="M37.376 4.407h-1.072c-.988 0-.987 1.026-.987 1.026v7.774c0 1.782-2.177 2.356-5.012 2.356h-3.038c-2.869.01-5.011-.423-5.011-2.356V5.394s.006-.988-.988-.988h-1.072c-.99 0-.988.988-.988.988v8.35c0 1.551 1.679 4.367 7.522 4.367h4.108c5.834 0 7.524-2.815 7.524-4.367V5.432s0-1.026-.987-1.026m22.34 9.324c0 3.287-2.257 4.334-7.098 4.334h-4.673c-1.676-.01-3.367-.05-4.778-.645-1.84-.792-2.638-2.163-2.633-3.601V1.074s.006-.987.987-.987h1.072c.99 0 .987.987.987.987V4.48h9.527c5.755 0 6.609 1.452 6.609 4.246zm-3.016-.088V8.784c-.018-1.709-1.033-1.788-4.101-1.788h-9.02v6.794c.045.972.524 1.393 1.844 1.611.96.161 1.954.112 2.871.116h4.306q2.029.007 2.607-.116 1.494-.396 1.494-1.76m51.127-2.579c-.616 0-3.219-.134-3.251 1.306v1.457c.018 1.733 2.421 1.737 3.072 1.733h7.766c1.327 0 3.135.267 3.135-2.016v-2.479zm13.735 2.916c0 3.294-2.071 4.131-6.18 4.131H108c-1.483.006-2.862-.055-4.11-.665-1.56-.732-2.328-2.002-2.332-3.318V12.4q-.007-2.157 2.227-3.221c1.145-.56 2.513-.615 4.099-.617h10.661c-.143-.946.109-1.567-2.463-1.576-.284-.006-10.599-.01-10.683 0q-1.105 0-1.112-1.142v-.293c.006-.738.377-1.144 1.112-1.144h12.855c2.64.151 3.304 2.339 3.31 4.217m-24.891 1.492V8.418c0-1.021-.822-1.522-4.277-1.522h-3.623c-3.667 0-5.104.35-5.104 1.638v1.582zm2.929 1.373q.006 1.232-.82 1.232H83.668c-.038 2.152.524 2.841 4.179 2.841h1.357c.346-.011 7.148.011 7.29 0q1.106.001 1.113 1.407-.007 1.142-1.113 1.14c-1.967.006-9.832.084-10.482 0-1.67-.14-2.901-.65-3.693-1.288-1.112-.868-1.66-1.862-1.67-3.046V8.74c.006-1.582.606-2.754 2.338-3.515 1.266-.561 3.343-.815 5.165-.82h5.088c1.512 0 3.357.234 4.46.762 1.456.668 1.911 1.676 1.901 3.016m-82.232 6.006q0 3.917-5.974 3.924H1.173c-.738 0-1.107-.512-1.113-1.274.004-.938.377-1.274 1.113-1.274h10.219c2.118 0 2.845-.449 2.841-1.378v-.498c.004-.844-.419-1.26-2.577-1.26h-4.89C1.926 12.429 0 11.935 0 8.624V7.92c0-1.683 1.628-3.513 4.511-3.513h10.891c.766 0 1.1.428 1.113 1.266.013.91-.311 1.284-1.113 1.284h-8.84c-1.123-.006-1.805 0-2.05 0-1.25 0-1.494.465-1.494.965v.704c.01.806.283 1.256 1.551 1.229.388-.007 1.113 0 2.198 0h5.009q5.587-.007 5.594 3.718m61.501.615q0 3.917-5.974 3.924H62.678c-.738 0-1.11-.512-1.113-1.274.004-.938.377-1.274 1.113-1.274h10.219c2.118 0 2.846-.449 2.841-1.378v-.498c.006-.844-.419-1.26-2.577-1.26h-4.89c-4.84 0-6.766-.494-6.766-3.805v-.704c0-1.683 1.628-3.513 4.512-3.513h10.891c.766 0 1.102.428 1.116 1.266.013.91-.311 1.284-1.113 1.284h-8.843c-1.123-.006-1.806 0-2.05 0-1.25 0-1.494.465-1.494.965v.704c.01.806.283 1.256 1.551 1.229.385-.007 1.113 0 2.198 0h5.009q5.585-.007 5.593 3.718" fill="#14365e"/></svg>
