<svg xmlns="http://www.w3.org/2000/svg" height="249.333" width="374" viewBox="-11.832 -2.434 102.545 14.607">
  <path d="M70.408 0h7.531c.88 0 1.218.679.688 1.382l-6.04 7.999c-.693.918-2.069-.121-1.377-1.039l4.997-6.617h-5.799c-1.15 0-1.15-1.725 0-1.725" fill="#ee3425"/>
  <path d="M19.969 2.355h-.573c-.528 0-.527.548-.527.548v4.154c0 .952-1.163 1.259-2.678 1.259h-1.623c-1.533.005-2.677-.226-2.677-1.259V2.882s.003-.528-.528-.528h-.573c-.529 0-.528.528-.528.528v4.461c0 .829.897 2.333 4.019 2.333h2.195c3.117 0 4.02-1.504 4.02-2.333V2.902s0-.548-.527-.548m11.936 4.982c0 1.756-1.206 2.316-3.792 2.316h-2.497c-.895-.005-1.799-.027-2.553-.345-.983-.423-1.409-1.156-1.407-1.924V.574s.003-.527.527-.527h.573c.529 0 .527.527.527.527v1.82h5.09c3.075 0 3.531.776 3.531 2.269zm-1.611-.047V4.693c-.01-.913-.552-.955-2.191-.955h-4.819v3.63c.024.519.28.744.985.861.513.086 1.044.06 1.534.062h2.301q1.084.004 1.393-.062.798-.212.798-.94m27.316-1.378c-.329 0-1.72-.072-1.737.698v.779c.01.926 1.293.928 1.641.926h4.149c.709 0 1.675.143 1.675-1.077V5.911zm7.339 1.558c0 1.76-1.106 2.207-3.302 2.207h-3.944c-.792.003-1.529-.029-2.196-.355-.833-.391-1.244-1.07-1.246-1.773v-.923q-.004-1.153 1.19-1.721c.612-.299 1.343-.328 2.19-.33h5.696c-.076-.506.058-.837-1.316-.842-.152-.003-5.663-.005-5.708 0q-.59 0-.594-.61v-.156c.003-.394.201-.611.594-.611h6.868c1.411.081 1.765 1.25 1.768 2.253m-13.298.798v-.907c0-.545-.439-.813-2.285-.813H47.43c-1.959 0-2.727.187-2.727.875v.845zm1.565.734q.003.658-.438.658h-8.075c-.02 1.15.28 1.518 2.233 1.518h.725c.185-.006 3.819.006 3.895 0q.591.001.595.752-.004.61-.595.609c-1.051.003-5.253.045-5.6 0-.892-.075-1.55-.347-1.973-.688-.594-.464-.887-.995-.892-1.628v-2.69c.003-.845.324-1.471 1.249-1.878.676-.3 1.786-.435 2.759-.438h2.718c.808 0 1.794.125 2.383.407.778.357 1.021.895 1.016 1.611M9.28 7.58q0 2.093-3.192 2.097H.627c-.394 0-.592-.274-.595-.681.002-.501.201-.681.595-.681h5.46c1.132 0 1.52-.24 1.518-.736v-.266c.002-.451-.224-.673-1.377-.673H3.615C1.029 6.641 0 6.377 0 4.608v-.376c0-.899.87-1.877 2.41-1.877h5.819c.409 0 .588.229.595.676.007.486-.166.686-.595.686H3.506c-.6-.003-.964 0-1.095 0-.668 0-.798.248-.798.515v.376c.005.431.151.671.829.657.207-.004.595 0 1.174 0h2.676q2.985-.004 2.989 1.987m32.859.328q0 2.093-3.192 2.097h-5.46c-.394 0-.593-.274-.595-.681.002-.501.201-.681.595-.681h5.46c1.132 0 1.521-.24 1.518-.736v-.266c.003-.451-.224-.673-1.377-.673h-2.613c-2.586 0-3.615-.264-3.615-2.033v-.376c0-.899.87-1.877 2.411-1.877h5.819c.409 0 .589.229.596.676.007.486-.166.686-.595.686h-4.724c-.6-.003-.965 0-1.095 0-.668 0-.798.248-.798.515v.376c.005.431.151.671.829.657.206-.004.595 0 1.174 0h2.676q2.984-.004 2.988 1.987" fill="#14365e"/>
</svg>
