<svg xmlns="http://www.w3.org/2000/svg" height="800" width="1200" viewBox="-37.963905 -7.81115 329.02051 46.8669"><path d="M225.9085 0h24.1654c2.8238 0 3.9078 2.1806 2.2073 4.435L232.9005 30.1c-2.223 2.9462-6.639-.3875-4.4161-3.3336l16.0313-21.2319h-18.6072c-3.6898 0-3.6898-5.5346 0-5.5346" fill="#ee3425"/><path d="M64.0735 7.5552H62.235c-1.6927 0-1.6911 1.757-1.6911 1.757v13.3284c0 3.056-3.7321 4.038-8.5938 4.038h-5.2067c-4.9182.0173-8.5907-.7232-8.5907-4.038V9.2479s.0094-1.6927-1.6927-1.6927h-1.837c-1.6959 0-1.6927 1.6927-1.6927 1.6927V23.56c0 2.659 2.8787 7.4862 12.8953 7.4862.353 0 2.3657-.0032 3.522 0h3.5218c10.001 0 12.897-4.8272 12.897-7.4862V9.3122s0-1.757-1.6928-1.757m38.2984 15.9843c0 5.635-3.8686 7.4313-12.1674 7.4313h-8.0149c-2.8708-.0157-5.773-.0879-8.1905-1.1092-3.1533-1.3554-4.5212-3.7101-4.5134-6.1715V1.8433S69.4952.1522 71.1785.1522h1.837c1.6975 0 1.6928 1.6911 1.6928 1.6911v5.8359h16.3325c9.8676 0 11.3312 2.4896 11.3312 7.2806zm-5.1706-.1506v-8.3302c-.0314-2.9305-1.7696-3.0623-7.0297-3.0623H74.7083V23.64c.0753 1.666.8973 2.386 3.161 2.7642 1.6457.2745 3.3494.1914 4.9213.1992h7.3826c2.3171.0094 3.8075-.058 4.468-.1992 1.7067-.4534 2.5602-1.4574 2.5602-3.0152m87.6443-4.4194c-1.0557 0-5.5205-.2306-5.5738 2.2387v2.5006c.033 2.9697 4.151 2.9791 5.2648 2.9713h13.3126c2.2748 0 5.373.458 5.373-3.4576 0-.3436-.0015-4.253-.0015-4.253zm23.5474 4.9982c0 5.646-3.5486 7.0798-10.594 7.0798h-12.6537c-2.5414.0095-4.9056-.094-7.0454-1.1389-2.6716-1.2566-3.991-3.4325-3.9988-5.69V21.257c-.0078-2.4677 1.2629-4.3078 3.8168-5.522 1.9641-.9602 4.3079-1.0512 7.0282-1.0606h18.2746c-.2431-1.6237.1867-2.6841-4.2231-2.6998-.4863-.0094-18.1696-.0157-18.3123 0-1.263 0-1.8967-.651-1.9061-1.9563v-.502c.0094-1.2644.6448-1.961 1.906-1.961h22.035c4.5276.262 5.6634 4.0098 5.6728 7.229m-42.6676 2.5585v-2.91c0-1.7492-1.4103-2.6105-7.3293-2.6105h-6.214c-6.286 0-8.7506.5993-8.7506 2.8097v2.7108zm5.02 2.3563c.008 1.4056-.4611 2.11-1.4055 2.11h-25.9084c-.0627 3.6898.8974 4.8695 7.1646 4.8695h2.325c.5945-.0173 12.2537.0188 12.4968 0 1.2629 0 1.8998.8064 1.9077 2.4128-.008 1.3036-.6448 1.9547-1.9077 1.9547-3.3713.0113-16.8565.1443-17.9672 0-2.863-.2416-4.9714-1.1123-6.3284-2.2073-1.9076-1.4903-2.8473-3.1924-2.8615-5.2224V14.985c.009-2.7109 1.0401-4.7205 4.0083-6.0257 2.1696-.9617 5.7307-1.3962 8.8526-1.404h8.7208c2.5916 0 5.7558.4 7.6447 1.3051 2.4959 1.1453 3.2756 2.8709 3.2583 5.1692M29.7738 24.3192c0 4.4772-3.4137 6.7206-10.2425 6.7284H2.0112c-1.2645 0-1.9014-.88-1.9092-2.1837.0078-1.6064.6447-2.1837 1.9092-2.1837h17.52c3.6318 0 4.879-.7687 4.8711-2.361v-.8519c.0079-1.448-.7185-2.1602-4.4192-2.1602H11.598C3.3023 21.3071 0 20.4615 0 14.7841v-1.2063c0-2.885 2.7924-6.021 7.734-6.021 1.5673 0 14.2116-.0016 18.6716 0 1.3131 0 1.8873.7357 1.9092 2.168.0236 1.561-.5318 2.1995-1.9092 2.1995h-15.159c-1.9234-.0095-3.0937 0-3.5125 0-2.143 0-2.5618.7953-2.5618 1.6535v1.2063c.0172 1.3821.4831 2.154 2.6606 2.107.662-.0142 1.9076 0 3.765 0h8.5875c6.3834-.0064 9.579 2.113 9.5884 6.3738m105.4296 1.0543c0 4.4772-3.412 6.7206-10.2425 6.7284h-17.5201c-1.2645 0-1.9014-.88-1.9092-2.1837.0078-1.6064.6447-2.1837 1.9092-2.1837h17.52c3.6318 0 4.8805-.7687 4.8711-2.361v-.8519c.0094-1.448-.7185-2.1602-4.4192-2.1602h-8.3836c-8.2957 0-11.5995-.8456-11.5995-6.523v-1.2063c0-2.885 2.7924-6.021 7.734-6.021 1.5673 0 14.2116-.0016 18.6716 0 1.3131 0 1.8888.7357 1.9108 2.168.0235 1.561-.5318 2.1995-1.9108 2.1995h-15.1575c-1.9249-.0095-3.0952 0-3.514 0-2.1414 0-2.5618.7953-2.5618 1.6535v1.2063c.0172 1.3821.4847 2.154 2.6606 2.107.662-.0142 1.9092 0 3.7666 0h8.586c6.3849-.0064 9.5789 2.113 9.5883 6.3738" fill="#14365e"/></svg>